     <svg
            xmlns="http://www.w3.org/2000/svg"
            xmlns:xlink="http://www.w3.org/1999/xlink"
            width="690px"
            height="519px"
          >
            <path
              fill-rule="evenodd"
              opacity="0.412"
              fill="rgb(255, 255, 255)"
              d="M0.010,293.142 L7.857,289.009 L11.990,296.857 L4.142,300.989 L0.010,293.142 Z"
            ></path>
            <path
              fill-rule="evenodd"
              opacity="0.6"
              fill="rgb(255, 255, 255)"
              d="M680.839,148.992 L689.997,154.833 L684.156,163.991 L674.998,158.149 L680.839,148.992 Z"
            ></path>
            <path
              fill-rule="evenodd"
              opacity="0.2"
              fill="rgb(255, 255, 255)"
              d="M145.500,508.000 C148.538,508.000 151.000,510.462 151.000,513.500 C151.000,516.538 148.538,519.000 145.500,519.000 C142.462,519.000 140.000,516.538 140.000,513.500 C140.000,510.462 142.462,508.000 145.500,508.000 Z"
            ></path>
            <path
              fill-rule="evenodd"
              opacity="0.302"
              fill="rgb(255, 255, 255)"
              d="M633.500,357.000 C635.985,357.000 638.000,359.015 638.000,361.500 C638.000,363.985 635.985,366.000 633.500,366.000 C631.015,366.000 629.000,363.985 629.000,361.500 C629.000,359.015 631.015,357.000 633.500,357.000 Z"
            ></path>
            <path
              fill-rule="evenodd"
              opacity="0.8"
              fill="rgb(255, 255, 255)"
              d="M574.672,8.047 L583.310,0.211 L585.650,11.982 L574.672,8.047 Z"
            ></path>
            <path
              fill-rule="evenodd"
              opacity="0.6"
              fill="rgb(255, 255, 255)"
              d="M140.000,18.000 C141.657,18.000 143.000,19.343 143.000,21.000 C143.000,22.657 141.657,24.000 140.000,24.000 C138.343,24.000 137.000,22.657 137.000,21.000 C137.000,19.343 138.343,18.000 140.000,18.000 Z"
            ></path>
          </svg>
